HIERARCHY
ROOT pelvis
{
	OFFSET 0.000000 0.000000 0.727022
	CHANNELS 6 Xposition Yposition Zposition Xrotation Yrotation Zrotation
	JOINT spine
	{
		OFFSET 0.000000 0.000000 0.000000
		CHANNELS 6 Xposition Yposition Zposition Xrotation Yrotation Zrotation
		JOINT spine.001
		{
			OFFSET 0.000000 -0.010851 0.207059
			CHANNELS 3 Xrotation Yrotation Zrotation
			JOINT neck
			{
				OFFSET 0.000000 0.025269 0.205797
				CHANNELS 6 Xposition Yposition Zposition Xrotation Yrotation Zrotation
				JOINT face
				{
					OFFSET 0.000000 0.002789 0.159761
					CHANNELS 6 Xposition Yposition Zposition Xrotation Yrotation Zrotation
					End Site
					{
						OFFSET 0.000000 -0.017303 -0.006953
					}
				}
			}
			JOINT shoulder.L
			{
				OFFSET 0.000000 0.025269 0.205797
				CHANNELS 6 Xposition Yposition Zposition Yrotation Xrotation Zrotation
				JOINT upper_arm.L
				{
					OFFSET 0.137806 0.000000 0.000000
					CHANNELS 6 Xposition Yposition Zposition Xrotation Yrotation Zrotation
					JOINT forearm.L
					{
						OFFSET 0.219414 0.000101 0.000841
						CHANNELS 6 Xposition Yposition Zposition Xrotation Yrotation Zrotation
						End Site
						{
							OFFSET 0.205039 -0.003486 -0.001158
						}
					}
				}
			}
			JOINT shoulder.R
			{
				OFFSET 0.000000 0.025269 0.205797
				CHANNELS 6 Xposition Yposition Zposition Yrotation Xrotation Zrotation
				JOINT upper_arm.R
				{
					OFFSET -0.137806 0.000000 0.000000
					CHANNELS 6 Xposition Yposition Zposition Xrotation Yrotation Zrotation
					JOINT forearm.R
					{
						OFFSET -0.215908 0.000101 0.000841
						CHANNELS 6 Xposition Yposition Zposition Xrotation Yrotation Zrotation
						End Site
						{
							OFFSET -0.209494 -0.003564 -0.001159
						}
					}
				}
			}
		}
	}
	JOINT pelvis.L
	{
		OFFSET 0.000000 0.000000 0.000000
		CHANNELS 6 Xposition Yposition Zposition Yrotation Xrotation Zrotation
		End Site
		{
			OFFSET 0.089911 0.000000 0.000000
		}
	}
	JOINT pelvis.R
	{
		OFFSET 0.000000 0.000000 0.000000
		CHANNELS 6 Xposition Yposition Zposition Yrotation Xrotation Zrotation
		End Site
		{
			OFFSET -0.089911 0.000000 0.000000
		}
	}
	JOINT thigh.L
	{
		OFFSET 0.089911 0.000000 0.000000
		CHANNELS 6 Xposition Yposition Zposition Xrotation Yrotation Zrotation
		JOINT shin.L
		{
			OFFSET 0.019079 0.000000 -0.364056
			CHANNELS 6 Xposition Yposition Zposition Xrotation Yrotation Zrotation
			JOINT foot.L
			{
				OFFSET 0.016153 0.000000 -0.308217
				CHANNELS 3 Xrotation Yrotation Zrotation
				End Site
				{
					OFFSET 0.012549 -0.127950 -0.053728
				}
			}
			JOINT heel.02.L
			{
				OFFSET 0.016153 0.000000 -0.308217
				CHANNELS 3 Xrotation Yrotation Zrotation
				End Site
				{
					OFFSET 0.075427 0.030244 -0.049948
				}
			}
		}
	}
	JOINT thigh.R
	{
		OFFSET -0.089911 0.000000 0.000000
		CHANNELS 6 Xposition Yposition Zposition Xrotation Yrotation Zrotation
		JOINT shin.R
		{
			OFFSET -0.019310 0.000000 -0.368456
			CHANNELS 6 Xposition Yposition Zposition Xrotation Yrotation Zrotation
			JOINT foot.R
			{
				OFFSET -0.015935 0.000000 -0.304053
				CHANNELS 3 Xrotation Yrotation Zrotation
				End Site
				{
					OFFSET -0.012210 -0.124494 -0.052277
				}
			}
			JOINT heel.02.R
			{
				OFFSET -0.015935 0.000000 -0.304053
				CHANNELS 3 Xrotation Yrotation Zrotation
				End Site
				{
					OFFSET -0.073605 0.030244 -0.049807
				}
			}
		}
	}
}
MOTION
Frames: 8
Frame Time: 0.041667
-0.003815 -0.025100 0.715991 -0.000000 0.000000 -0.867688 -0.000000 -0.000000 -0.000000 -4.428175 0.904787 0.082568 9.992045 -0.334227 -2.723112 -0.000000 0.025269 0.205797 13.380921 -4.811642 -5.031394 -0.000000 0.002789 0.159761 1.226468 0.000001 0.000000 -0.000000 0.025269 0.205797 -2.801114 0.008404 0.343693 0.137807 -0.000000 0.000000 63.089829 80.505015 -71.873398 0.219414 0.000101 0.000841 5.236356 17.758323 -31.742102 -0.000000 0.025269 0.205797 -2.746640 0.008081 0.337053 -0.137806 -0.000000 0.000000 42.446194 -70.555929 57.447628 -0.215908 0.000101 0.000841 7.331647 -26.925598 28.610406 0.000000 0.000000 0.000000 0.251789 0.000000 -0.000025 0.000000 0.000000 0.000000 0.251827 -0.000000 0.000000 0.089911 0.000000 -0.000395 7.895921 5.609517 0.027088 0.019079 -0.000000 -0.364056 -5.579075 -7.865188 -0.674017 -2.498534 1.789232 -4.582090 -11.179977 42.459256 39.013959 -0.089911 -0.000000 0.000395 8.383450 -4.600683 -0.102994 -0.019310 -0.000000 -0.368456 -6.330890 4.954587 0.604926 -0.246168 -1.787941 4.303475 -14.718084 -46.170293 -45.731166 
-0.004310 -0.025499 0.715907 -0.000000 0.000000 -0.938674 0.000000 -0.000000 -0.000000 -4.485319 0.829610 0.076125 9.994369 -0.279679 -2.278474 -0.000000 0.025269 0.205797 13.407543 -4.642608 -5.154138 -0.000000 0.002789 0.159761 1.111393 0.000001 -0.000003 -0.000000 0.025269 0.205797 -2.799944 0.008396 0.343572 0.137807 0.000000 -0.000000 63.995676 80.612433 -72.734172 0.219414 0.000101 0.000841 5.216766 17.714393 -31.705666 -0.000000 0.025269 0.205797 -2.745571 0.008074 0.336929 -0.137807 -0.000000 0.000000 42.386675 -70.796468 57.160788 -0.215908 0.000101 0.000841 7.298904 -26.768923 28.660297 0.000000 -0.000000 0.000000 0.227632 0.000000 0.000018 0.000000 -0.000000 0.000000 0.227594 -0.000000 0.000000 0.089911 -0.000000 -0.000357 7.985941 5.529452 0.033013 0.019079 -0.000000 -0.364056 -5.685911 -7.778060 -0.682641 -2.317123 1.752261 -4.477018 -11.281727 42.546427 39.092574 -0.089911 0.000000 0.000357 8.436755 -4.620404 -0.102191 -0.019310 0.000000 -0.368456 -6.355147 4.956384 0.607348 -0.087414 -1.850319 4.432237 -14.634257 -46.103316 -45.616016 
-0.004892 -0.025698 0.715758 -0.000000 0.000000 -0.991573 -0.000000 -0.000000 -0.000000 -4.495928 0.738681 0.067850 9.996361 -0.224651 -1.830009 0.000000 0.025269 0.205797 13.346682 -4.418138 -5.311879 0.000000 0.002789 0.159761 1.051638 0.000000 0.000001 0.000000 0.025269 0.205797 -2.784132 0.008302 0.341668 0.137807 0.000000 -0.000000 64.460006 80.609155 -73.230263 0.219414 0.000101 0.000841 5.237759 17.797091 -31.677611 -0.000000 0.025269 0.205798 -2.729662 0.007981 0.335008 -0.137806 -0.000000 0.000000 42.286582 -71.031420 56.829544 -0.215908 0.000101 0.000841 7.245837 -26.588258 28.656564 0.000000 -0.000000 0.000000 0.191662 0.000000 0.000026 0.000000 -0.000000 0.000000 0.191700 -0.000000 0.000000 0.089911 -0.000000 -0.000301 8.057956 5.453103 0.038714 0.019079 -0.000000 -0.364056 -5.789619 -7.727086 -0.692550 -2.034138 1.733751 -4.400730 -11.374685 42.634642 39.196748 -0.089911 -0.000000 0.000301 8.471998 -4.638777 -0.101255 -0.019310 0.000000 -0.368456 -6.366946 4.939230 0.607530 0.040683 -1.918337 4.579319 -14.510710 -46.014199 -45.493366 
-0.005730 -0.025355 0.715345 -0.000000 0.000000 -0.989840 -0.000000 -0.000000 -0.000000 -4.438729 0.682433 0.062340 9.997578 -0.187820 -1.529786 -0.000000 0.025269 0.205797 13.265375 -4.183485 -5.369076 -0.000000 0.002789 0.159761 0.994800 -0.000001 0.000000 -0.000000 0.025269 0.205797 -2.787161 0.008325 0.342135 0.137807 0.000000 0.000000 64.177953 80.539555 -72.997947 0.219414 0.000101 0.000841 5.324030 18.040179 -31.743635 -0.000000 0.025269 0.205797 -2.732791 0.008003 0.335452 -0.137807 -0.000000 -0.000000 42.445295 -71.126639 56.943092 -0.215908 0.000101 0.000841 7.149782 -26.361050 28.531911 0.000000 0.000000 0.000000 0.137042 0.000000 0.000049 0.000000 0.000000 0.000000 0.137042 -0.000000 0.000000 0.089911 -0.000000 -0.000215 8.062991 5.361255 0.045240 0.019079 -0.000000 -0.364056 -5.861554 -7.708008 -0.700197 -1.703653 1.757954 -4.415769 -11.436659 42.703367 39.303132 -0.089911 -0.000000 0.000215 8.463410 -4.657105 -0.099791 -0.019310 0.000000 -0.368456 -6.369898 4.863101 0.603599 0.118399 -1.960059 4.670147 -14.375994 -45.926595 -45.405940 
-0.006994 -0.024465 0.714541 -0.000000 0.000000 -0.940972 0.000000 -0.000000 -0.000000 -4.334008 0.708786 0.064094 9.997664 -0.179992 -1.466105 -0.000000 0.025269 0.205797 13.236197 -4.017262 -5.186109 -0.000000 0.002789 0.159761 0.897346 -0.000001 -0.000005 -0.000000 0.025269 0.205798 -2.836838 0.008623 0.348119 0.137807 0.000000 -0.000000 63.344991 80.563017 -72.089689 0.219414 0.000101 0.000841 5.468048 18.371252 -31.985834 -0.000000 0.025269 0.205798 -2.782462 0.008296 0.341511 -0.137807 -0.000000 -0.000000 42.975263 -71.034739 57.681371 -0.215908 0.000101 0.000841 7.027287 -26.110866 28.322725 0.000000 0.000000 0.000000 0.085993 0.000000 -0.000033 0.000000 0.000000 0.000000 0.085993 -0.000000 0.000000 0.089911 0.000000 -0.000135 7.990433 5.234178 0.053745 0.019079 -0.000000 -0.364056 -5.876499 -7.697077 -0.701427 -1.442730 1.811744 -4.508137 -11.496672 42.775084 39.426273 -0.089911 -0.000000 0.000135 8.417248 -4.706465 -0.095601 -0.019310 0.000000 -0.368456 -6.378067 4.759061 0.598608 0.161940 -1.968144 4.684369 -14.261490 -45.856541 -45.353194 
-0.008741 -0.023375 0.713511 -0.000000 0.000000 -0.918370 0.000000 -0.000000 -0.000000 -4.230396 0.824917 0.073844 9.997267 -0.194156 -1.581520 -0.000000 0.025269 0.205797 13.273124 -3.951945 -4.786406 0.000000 0.002789 0.159760 0.808962 -0.000000 -0.000001 -0.000000 0.025269 0.205798 -2.924130 0.009158 0.358881 0.137807 -0.000000 -0.000000 62.461848 80.744277 -70.976232 0.219414 0.000101 0.000841 5.611304 18.652080 -32.305316 -0.000000 0.025269 0.205797 -2.869762 0.008822 0.352187 -0.137806 -0.000000 -0.000000 43.714525 -70.829396 58.779618 -0.215908 0.000101 0.000841 6.922438 -25.905279 28.129811 -0.000000 0.000000 0.000000 0.073193 0.000000 -0.000041 -0.000000 0.000000 0.000000 0.073231 -0.000000 0.000000 0.089911 -0.000000 -0.000115 7.886114 5.083627 0.063460 0.019079 0.000000 -0.364056 -5.844412 -7.692288 -0.697348 -1.323813 1.849117 -4.580496 -11.604827 42.894507 39.614793 -0.089911 -0.000000 0.000115 8.362756 -4.825566 -0.086243 -0.019310 -0.000000 -0.368456 -6.410981 4.699012 0.598358 0.211921 -1.969791 4.682344 -14.137778 -45.779025 -45.289308 
-0.010853 -0.022415 0.712650 -0.000000 0.000000 -1.007062 -0.000000 -0.000000 -0.000000 -4.154811 1.003985 0.089207 9.996777 -0.213099 -1.735824 0.000000 0.025269 0.205797 13.338801 -3.989146 -4.334651 -0.000000 0.002789 0.159760 0.813240 0.000001 -0.000000 -0.000000 0.025269 0.205797 -3.013286 0.009728 0.369825 0.137807 0.000000 -0.000000 61.967103 80.951907 -70.252000 0.219414 0.000101 0.000841 5.684868 18.782320 -32.490541 0.000000 0.025269 0.205797 -2.958866 0.009378 0.363152 -0.137807 0.000000 0.000000 44.452510 -70.596091 59.902385 -0.215908 0.000101 0.000841 6.852046 -25.786175 27.975982 0.000000 -0.000000 0.000000 0.106694 0.000000 -0.000036 0.000000 -0.000000 0.000000 0.106656 -0.000000 0.000000 0.089911 -0.000000 -0.000167 7.806667 4.941886 0.072525 0.019079 0.000000 -0.364056 -5.800258 -7.712070 -0.693067 -1.320260 1.827878 -4.530779 -11.761975 43.066610 39.889551 -0.089911 -0.000000 0.000167 8.309312 -5.016003 -0.071807 -0.019310 0.000000 -0.368456 -6.461591 4.716714 0.604086 0.288723 -2.000196 4.746556 -13.958065 -45.662110 -45.179850 
-0.013018 -0.021692 0.712252 -0.000000 0.000000 -1.211576 -0.000000 -0.000000 -0.000000 -4.097971 1.197223 0.105778 9.996327 -0.225060 -1.833322 -0.000000 0.025269 0.205797 13.393456 -4.125527 -3.937255 -0.000000 0.002789 0.159760 0.924426 0.000001 0.000001 -0.000000 0.025269 0.205797 -3.066833 0.010075 0.376332 0.137807 -0.000000 -0.000000 61.900201 81.032702 -70.104502 0.219414 0.000101 0.000841 5.676312 18.776497 -32.452186 -0.000000 0.025269 0.205797 -3.012464 0.009721 0.369657 -0.137806 -0.000000 0.000000 45.086366 -70.339549 60.919168 -0.215908 0.000101 0.000841 6.773665 -25.706817 27.740173 0.000000 0.000000 0.000000 0.164466 0.000000 0.000038 0.000000 0.000000 0.000000 0.164428 -0.000000 0.000000 0.089911 -0.000000 -0.000258 7.773763 4.830838 0.079791 0.019079 0.000000 -0.364056 -5.771462 -7.762061 -0.692128 -1.361805 1.743905 -4.341095 -11.909035 43.239810 40.199423 -0.089911 -0.000000 0.000258 8.247478 -5.217669 -0.056674 -0.019310 -0.000000 -0.368456 -6.498595 4.762098 0.610115 0.379387 -2.066647 4.896610 -13.744247 -45.517576 -45.030163 
